<?xml version="1.0" encoding="UTF-8"?>
<svg id="SB_logomark" data-name="SB logomark" xmlns="http://www.w3.org/2000/svg" viewBox="0 0 216 216">
  <defs>
    <style>
      .cls-1 {
        fill: #715880;
      }

      .cls-2 {
        fill: #fbb040;
      }

      .cls-3 {
        fill: #000000;
      }
    </style>
  </defs>
  <path class="cls-1" d="M192.11,111.45c12.17-4.57,19.09-13.29,19.09-24.21,0-14.39-12.46-22.13-35.69-22.13h-55.88c6.99,6.54,11.22,15.7,12.58,26.01l1.13,8.57-8.61.74-12.54,1.06h0c8.65,5.57,15.02,14.78,15.02,29.5,0,13.59-5.47,24.79-15.4,32.88h44.75c15.77,0,28.22-3.04,37.35-8.99,8.99-5.95,13.55-14.11,13.55-24.48,0-8.86-5.52-15.77-15.35-18.95ZM158.77,140.77h-22.26l3.59-17.28h21.85c7.61,0,11.76,2.63,11.76,7.19,0,6.23-5.53,10.09-14.94,10.09ZM165,102.59h-20.75l3.05-14.39h20.33c6.78,0,10.09,1.8,10.09,6.1,0,5.39-4.42,8.29-12.72,8.29Z"/>
  <path class="cls-3" d="M4.79,131.74h37.91c1.34,8.47,7.73,12.04,21.56,12.04,10.55,0,16.8-2.82,16.8-7.43,0-3.57-2.82-5.65-9.22-6.39l-19.92-2.97c-23.04-3.57-36.27-15.16-36.27-31.67,0-23.93,19.03-36.57,55.45-36.57,31.07,0,50.1,12.04,52.93,33.45l-36.42,3.12c-1.64-7.28-6.99-10.41-18.28-10.41-10.56,0-16.21,2.38-16.21,6.69,0,2.82,2.68,4.76,8.18,5.65l24.23,4.01c23.64,4.01,33.45,12.64,33.45,29.73,0,24.08-21.11,39.25-58.13,39.25s-53.96-12.78-56.05-38.5Z"/>
  <path class="cls-2" d="M196.39,38.34c-7.41.66-14.94.54-22.43-.25-21.09-2.29-41.74-9.74-59.53-21.39-4.9,3.88-10.12,7.25-15.52,10.4-17.91,10.29-38.14,16.81-58.81,18.19-.79,22.35,1.72,44.91,7.02,66.6,9.66,40.87,32.81,78.02,67,102.9C56.23,189.21,26.35,124.34,23.98,63.54c-.67-11.26-.24-22.87,1.12-34.12l7.31-.03c29.45.01,58.74-10.51,82.23-28.18l3.43,3.21c10.71,9.26,23.21,16.49,36.15,22.25,13.46,5.89,27.56,9.75,42.18,11.67Z"/>
</svg>