<?xml version="1.0" encoding="UTF-8"?>
<svg id="SB_logotype" data-name="SB logotype" xmlns="http://www.w3.org/2000/svg" viewBox="0 0 216 216">
  <defs>
    <style>
      .cls-1 {
        fill: #715880;
      }

      .cls-2 {
        fill: #000000;
      }
    </style>
  </defs>
  <path class="cls-2" d="M.92,100h7.52c.26,1.68,1.53,2.39,4.27,2.39,2.09,0,3.33-.56,3.33-1.47,0-.71-.56-1.12-1.83-1.27l-3.95-.59c-4.57-.71-7.19-3.01-7.19-6.28,0-4.75,3.77-7.25,11-7.25,6.16,0,9.93,2.39,10.49,6.63l-7.22.62c-.32-1.44-1.39-2.06-3.63-2.06-2.09,0-3.21.47-3.21,1.33,0,.56.53.94,1.62,1.12l4.81.8c4.69.8,6.63,2.51,6.63,5.9,0,4.78-4.19,7.78-11.53,7.78s-10.7-2.54-11.11-7.63Z"/>
  <path class="cls-2" d="M36.18,86.06h9.08l4.51,21.05h-7.46l-.5-3.1h-8.81l-1.74,3.1h-8.02l12.94-21.05ZM40.95,98.44l-1.03-6.72-3.8,6.72h4.83Z"/>
  <path class="cls-2" d="M56.55,86.06h8.22l2.89,12.56,8.02-12.56h8.76l-4.3,21.05h-6.96l2.12-10.44-6.49,10.44h-5.45l-2.21-10.17-2.09,10.17h-6.81l4.3-21.05Z"/>
  <path class="cls-1" d="M102.58,90.62c0,2.75-1.51,4.57-4.54,5.48,1.02.39,1.81,1,2.37,1.82.56.82.84,1.72.84,2.7s-.17,1.88-.5,2.69c-.33.81-.86,1.49-1.58,2.05-.72.56-1.63.99-2.74,1.3-1.11.31-2.44.46-3.99.46h-7.22l4.45-21.05h6.81c1.24,0,2.26.15,3.05.44.8.29,1.42.67,1.87,1.12s.76.95.93,1.49c.17.54.25,1.04.25,1.52ZM87.3,105.51h5.4c1.22,0,2.25-.1,3.1-.3.85-.2,1.53-.5,2.05-.91s.9-.93,1.14-1.55c.24-.62.35-1.34.35-2.17,0-.51-.09-.99-.28-1.44-.19-.45-.47-.84-.85-1.18-.38-.33-.87-.59-1.46-.78s-1.3-.28-2.12-.28h-5.48l-1.83,8.61ZM94.64,95.28c.77,0,1.52-.07,2.26-.21.74-.14,1.39-.38,1.96-.72s1.03-.81,1.37-1.4c.34-.59.52-1.34.52-2.24,0-.45-.07-.86-.22-1.24-.15-.37-.4-.7-.75-.97-.35-.28-.82-.49-1.4-.65-.58-.16-1.3-.24-2.17-.24h-5.1l-1.62,7.67h5.16Z"/>
  <path class="cls-1" d="M107.32,97.91l-1.95,9.2h-1.77l4.45-21.05h6.49c1.26,0,2.31.15,3.15.46.84.31,1.52.7,2.02,1.19.5.49.85,1.05,1.06,1.67.21.62.31,1.23.31,1.84,0,1.75-.45,3.13-1.34,4.13-.89,1-2.14,1.71-3.73,2.12l2.42,9.64h-2.03l-2.18-9.29c-.33.04-.71.06-1.12.07-.41,0-.82.01-1.21.01h-4.57ZM112.72,96.31c1,0,1.91-.08,2.73-.25.81-.17,1.5-.45,2.06-.84.56-.39.99-.91,1.3-1.56s.46-1.46.46-2.45c0-.49-.08-.96-.24-1.4-.16-.44-.43-.83-.83-1.15-.39-.32-.92-.58-1.58-.77-.66-.19-1.49-.28-2.49-.28h-4.63l-1.86,8.7h5.07Z"/>
  <path class="cls-1" d="M134.24,85.52c1.16,0,2.24.2,3.26.59s1.89.96,2.64,1.71c.75.75,1.33,1.66,1.75,2.73.42,1.07.63,2.29.63,3.67,0,1.63-.25,3.24-.75,4.83-.5,1.59-1.24,3.03-2.21,4.3-.97,1.28-2.16,2.31-3.57,3.1-1.41.79-3.02,1.18-4.85,1.18-1.16,0-2.25-.2-3.26-.59-1.01-.39-1.89-.96-2.64-1.7s-1.33-1.64-1.75-2.71c-.42-1.07-.63-2.29-.63-3.67,0-1.61.26-3.22.78-4.83.52-1.61,1.27-3.05,2.24-4.32.97-1.27,2.16-2.3,3.57-3.1s3-1.19,4.79-1.19ZM131.2,106.04c1.47,0,2.8-.34,3.97-1.02,1.17-.68,2.16-1.57,2.96-2.68.81-1.11,1.42-2.37,1.84-3.77.42-1.41.63-2.84.63-4.29,0-1.04-.14-2-.41-2.87s-.69-1.63-1.24-2.27c-.55-.64-1.22-1.14-2.02-1.49-.8-.35-1.72-.53-2.76-.53-1.47,0-2.8.34-3.97,1.03-1.17.69-2.16,1.58-2.96,2.68-.81,1.1-1.42,2.36-1.84,3.77-.42,1.42-.63,2.84-.63,4.28,0,1.04.14,2,.41,2.89.27.88.69,1.64,1.24,2.27.55.63,1.22,1.12,2.02,1.47.8.35,1.71.53,2.76.53Z"/>
  <path class="cls-1" d="M153.85,87.71l-4.1,19.4h-1.8l4.1-19.4h-7.31l.35-1.65h16.39l-.35,1.65h-7.28Z"/>
  <path class="cls-1" d="M173.63,107.1l2.12-10.05h-11.88l-2.12,10.05h-1.8l4.45-21.05h1.8l-1.98,9.32h11.88l1.98-9.32h1.8l-4.45,21.05h-1.8Z"/>
  <path class="cls-1" d="M186.19,87.68l-1.65,7.72h10.85l-.35,1.68h-10.85l-1.8,8.37h12.06l-.71,1.65h-13.47l4.45-21.05h13.24l-.32,1.62h-11.44Z"/>
  <path class="cls-1" d="M201.31,97.91l-1.95,9.2h-1.77l4.45-21.05h6.49c1.26,0,2.31.15,3.15.46.85.31,1.52.7,2.02,1.19.5.49.86,1.05,1.06,1.67.21.62.31,1.23.31,1.84,0,1.75-.45,3.13-1.34,4.13-.89,1-2.14,1.71-3.73,2.12l2.42,9.64h-2.03l-2.18-9.29c-.33.04-.71.06-1.12.07-.41,0-.82.01-1.21.01h-4.57ZM206.71,96.31c1,0,1.91-.08,2.73-.25.82-.17,1.5-.45,2.06-.84.56-.39.99-.91,1.3-1.56.3-.65.46-1.46.46-2.45,0-.49-.08-.96-.24-1.4-.16-.44-.43-.83-.83-1.15-.39-.32-.92-.58-1.58-.77-.66-.19-1.49-.28-2.49-.28h-4.63l-1.86,8.7h5.07Z"/>
  <g>
    <path class="cls-2" d="M15.16,116.21h1.79v13.92h-1.79v-13.92Z"/>
    <path class="cls-2" d="M20.03,116.21h1.77l7.08,11.05v-11.05h1.73v13.92h-1.72l-7.13-10.99v10.99h-1.73v-13.92Z"/>
    <path class="cls-2" d="M34.71,126.17c.16.97.54,1.68,1.16,2.11.62.44,1.54.65,2.76.65.61,0,1.12-.07,1.53-.2.41-.14.74-.32.98-.55.25-.23.42-.49.53-.8.1-.31.16-.63.16-.96,0-.27-.03-.54-.1-.79-.07-.25-.19-.48-.38-.69-.19-.21-.45-.39-.78-.55-.33-.16-.76-.28-1.28-.37l-1.75-.31c-.69-.12-1.3-.27-1.83-.47-.53-.19-.98-.45-1.35-.75-.37-.31-.65-.69-.84-1.14-.19-.45-.28-1.01-.28-1.66s.13-1.2.4-1.68c.27-.48.63-.88,1.08-1.21.45-.32.99-.57,1.62-.72.62-.16,1.3-.23,2.03-.23.92,0,1.69.1,2.31.3.62.2,1.12.47,1.51.81s.69.72.89,1.16c.2.44.35.88.46,1.34l-1.68.33c-.1-.39-.24-.74-.4-1.04-.16-.31-.38-.56-.64-.76s-.59-.35-.98-.46c-.39-.1-.86-.16-1.42-.16-.64,0-1.17.06-1.6.18-.43.12-.77.28-1.03.48-.26.2-.45.44-.56.72s-.17.58-.17.89c0,.34.04.63.13.89.08.25.23.47.43.66.2.19.46.34.79.47.32.12.73.23,1.21.32l1.95.35c1.44.27,2.5.72,3.18,1.35s1.01,1.56,1.01,2.78c0,.56-.11,1.08-.32,1.57-.21.49-.53.91-.96,1.28-.42.36-.95.65-1.59.86-.64.21-1.38.31-2.24.31s-1.56-.08-2.23-.24-1.25-.42-1.74-.77c-.49-.35-.89-.8-1.19-1.34-.3-.55-.48-1.2-.55-1.95h1.79Z"/>
    <path class="cls-2" d="M46.07,116.21h1.79v8.4c0,1.44.27,2.52.81,3.24.54.71,1.43,1.07,2.68,1.07s2.15-.36,2.67-1.08c.52-.72.78-1.8.78-3.23v-8.4h1.79v8.4c0,1.04-.12,1.93-.36,2.66-.24.73-.58,1.34-1.03,1.82s-1,.83-1.66,1.05c-.66.22-1.39.33-2.21.33-1.68,0-2.97-.47-3.89-1.4-.92-.94-1.37-2.45-1.37-4.54v-8.32Z"/>
    <path class="cls-2" d="M59.52,116.21h4.56c1.04,0,1.89.12,2.55.35.66.23,1.19.54,1.57.91s.65.79.79,1.26c.14.47.22.94.22,1.42,0,.88-.19,1.64-.56,2.26s-.98,1.11-1.82,1.46l2.92,6.26h-2.01l-2.63-5.83c-.17.03-.35.04-.55.05-.19,0-.37,0-.53,0h-2.75v5.77h-1.77v-13.92ZM64.26,122.82c.62,0,1.14-.06,1.54-.19.4-.12.72-.3.95-.53.23-.23.4-.5.49-.83.09-.32.14-.69.14-1.09s-.05-.73-.16-1.03c-.1-.3-.28-.56-.54-.77-.25-.21-.59-.38-1.02-.49-.43-.11-.97-.17-1.64-.17h-2.73v5.09h2.96Z"/>
    <path class="cls-2" d="M76.22,116.21h1.89l5.4,13.92h-1.95l-1.46-3.88h-5.96l-1.46,3.88h-1.87l5.42-13.92ZM79.56,124.69l-2.46-6.45-2.42,6.45h4.87Z"/>
    <path class="cls-2" d="M85.27,116.21h1.77l7.08,11.05v-11.05h1.73v13.92h-1.72l-7.13-10.99v10.99h-1.73v-13.92Z"/>
    <path class="cls-2" d="M110.33,125.55c-.08.7-.25,1.35-.53,1.96s-.64,1.13-1.11,1.57c-.47.44-1.04.79-1.71,1.03-.67.25-1.45.37-2.33.37-.96,0-1.83-.16-2.59-.49-.77-.32-1.42-.8-1.95-1.42-.53-.62-.95-1.39-1.24-2.29-.29-.9-.44-1.93-.44-3.09s.16-2.21.47-3.12c.31-.91.75-1.68,1.31-2.3.56-.62,1.22-1.1,1.98-1.42.76-.32,1.58-.49,2.47-.49s1.6.11,2.22.33c.62.22,1.15.53,1.59.94.44.4.79.88,1.05,1.44s.47,1.18.61,1.85l-1.75.29c-.12-.51-.27-.96-.46-1.37-.19-.41-.43-.76-.72-1.04-.29-.29-.64-.5-1.05-.65-.41-.15-.91-.22-1.49-.22-.69,0-1.3.14-1.84.42-.54.28-.99.67-1.36,1.17-.37.5-.65,1.1-.85,1.81s-.29,1.49-.29,2.35.1,1.64.29,2.35c.2.71.48,1.32.85,1.82s.83.9,1.36,1.17c.54.27,1.16.41,1.86.41.64,0,1.18-.08,1.63-.24.45-.16.82-.39,1.11-.69.29-.3.52-.66.69-1.07s.29-.87.37-1.36h1.85Z"/>
    <path class="cls-2" d="M112.77,116.21h9v1.58h-7.21v4.37h6.82v1.6h-6.82v4.8h7.58l-.29,1.58h-9.08v-13.92Z"/>
    <path class="cls-2" d="M134.65,116.21h1.89l5.4,13.92h-1.95l-1.46-3.88h-5.96l-1.46,3.88h-1.87l5.42-13.92ZM137.98,124.69l-2.46-6.45-2.42,6.45h4.87Z"/>
    <path class="cls-2" d="M149.11,122.97h5.2v5.57c-.35.32-.74.61-1.16.85-.42.24-.86.44-1.33.6s-.94.28-1.42.36-.96.12-1.43.12c-1.03,0-1.94-.17-2.74-.5-.8-.33-1.48-.81-2.03-1.43-.55-.62-.97-1.39-1.26-2.29-.29-.9-.43-1.93-.43-3.07s.16-2.21.47-3.12c.31-.91.74-1.68,1.3-2.3.55-.62,1.21-1.1,1.98-1.42.77-.32,1.61-.49,2.51-.49.78,0,1.47.09,2.07.28.6.19,1.11.46,1.53.81.42.35.77.77,1.04,1.26s.48,1.03.62,1.63l-1.73.29c-.1-.4-.24-.77-.42-1.11s-.4-.63-.67-.87c-.27-.24-.61-.43-1-.56s-.87-.2-1.43-.2c-.73,0-1.36.14-1.91.42-.55.28-1,.67-1.36,1.18-.36.51-.64,1.11-.83,1.82-.19.71-.28,1.49-.28,2.35s.09,1.64.27,2.35c.18.71.46,1.32.85,1.82.38.51.86.9,1.43,1.17.57.27,1.25.41,2.03.41.7,0,1.36-.08,1.98-.25.62-.17,1.17-.44,1.67-.8v-3.33h-3.51v-1.56Z"/>
    <path class="cls-2" d="M156.97,116.21h9v1.58h-7.21v4.37h6.82v1.6h-6.82v4.8h7.58l-.29,1.58h-9.08v-13.92Z"/>
    <path class="cls-2" d="M168.54,116.21h1.77l7.08,11.05v-11.05h1.73v13.92h-1.72l-7.13-10.99v10.99h-1.73v-13.92Z"/>
    <path class="cls-2" d="M193.61,125.55c-.08.7-.25,1.35-.53,1.96s-.64,1.13-1.11,1.57c-.47.44-1.04.79-1.71,1.03-.67.25-1.45.37-2.33.37-.96,0-1.83-.16-2.59-.49-.77-.32-1.42-.8-1.95-1.42-.53-.62-.95-1.39-1.24-2.29-.29-.9-.44-1.93-.44-3.09s.16-2.21.47-3.12c.31-.91.75-1.68,1.31-2.3.56-.62,1.22-1.1,1.98-1.42.76-.32,1.58-.49,2.47-.49s1.6.11,2.22.33c.62.22,1.15.53,1.59.94.44.4.79.88,1.05,1.44s.47,1.18.61,1.85l-1.75.29c-.12-.51-.27-.96-.46-1.37-.19-.41-.43-.76-.72-1.04-.29-.29-.64-.5-1.05-.65-.41-.15-.91-.22-1.49-.22-.69,0-1.3.14-1.84.42-.54.28-.99.67-1.36,1.17-.37.5-.65,1.1-.85,1.81s-.29,1.49-.29,2.35.1,1.64.29,2.35c.2.71.48,1.32.85,1.82.37.51.83.9,1.36,1.17.54.27,1.16.41,1.86.41.64,0,1.18-.08,1.63-.24.45-.16.82-.39,1.11-.69.29-.3.52-.66.69-1.07s.29-.87.37-1.36h1.85Z"/>
    <path class="cls-2" d="M199.03,124.22l-4.85-8.01h2.07l3.68,6.43,3.78-6.43h1.89l-4.76,8.01v5.91h-1.81v-5.91Z"/>
  </g>
</svg>